<svg viewBox="0 0 512.00002 512.00002" xmlns="http://www.w3.org/2000/svg"><path d="m227.960938 251.289062c74.566406 29.960938 129.457031 131.9375 129.457031 253.105469h-349.8125c0-121.167969 54.886719-223.140625 129.453125-253.105469" fill="#6dcc98"/><path d="m182.507812 7.601562c-12.550781 0-23.917968 5.089844-32.140624 13.3125-8.222657 8.222657-13.308594 19.589844-13.308594 32.140626v262.933593h90.902344v-262.933593c0-25.105469-20.347657-45.453126-45.453126-45.453126zm13.808594 86.300782c0 7.636718-6.183594 13.808594-13.808594 13.808594s-13.808593-6.171876-13.808593-13.808594v-35.667969c0-7.625 6.183593-13.808594 13.808593-13.808594 3.8125 0 7.269532 1.550781 9.765626 4.046875 2.492187 2.492188 4.042968 5.949219 4.042968 9.761719zm0 0" fill="#6dcc98"/><path d="m504.394531 465.128906v39.265625h-52.714843v-496.789062h52.714843v432.175781" fill="#edd464"/><path d="m235.566406 246.269531v-193.214843c0-29.253907-23.800781-53.054688-53.054687-53.054688-29.257813 0-53.058594 23.800781-53.058594 53.054688v89.664062c0 4.199219 3.402344 7.605469 7.605469 7.605469 4.199218 0 7.601562-3.40625 7.601562-7.605469v-89.664062c0-20.867188 16.980469-37.847657 37.851563-37.847657 20.867187 0 37.847656 16.980469 37.847656 37.847657v255.332031h-75.699219v-140.320313c0-4.199218-3.402344-7.601562-7.601562-7.601562-4.203125 0-7.605469 3.402344-7.605469 7.601562v78.195313c-40.34375 17.980469-75.304687 56.222656-98.832031 108.316406-1.726563 3.828125-.027344 8.332031 3.800781 10.058594 1.015625.460937 2.078125.675781 3.125.675781 2.894531 0 5.664063-1.664062 6.933594-4.476562 20.753906-45.941407 50.640625-80.195313 84.972656-97.730469v52.882812c0 4.199219 3.402344 7.605469 7.605469 7.605469h90.902344c4.203124 0 7.605468-3.40625 7.605468-7.605469v-52.890625c66.21875 33.722656 112.082032 127.023438 114.171875 233.691406h-5.703125c-6.21875-36.34375-17.308594-70.742187-32.230468-99.847656-15.820313-30.855468-36.0625-56.027344-58.535157-72.789062-3.367187-2.511719-8.132812-1.816406-10.644531 1.550781-2.511719 3.363281-1.816406 8.128906 1.550781 10.640625 40.621094 30.300781 71.835938 89.859375 84.417969 160.449219h-292.167969c12.582031-70.589844 43.796875-130.148438 84.417969-160.449219 3.367188-2.511719 4.0625-7.273438 1.550781-10.640625s-7.273437-4.0625-10.644531-1.550781c-22.472656 16.765625-42.714844 41.933594-58.535156 72.789062-14.921875 29.105469-26.011719 63.503906-32.234375 99.847656h-5.699219c.789062-39.695312 7.71875-78.800781 20.160156-113.550781 1.417969-3.953125-.640625-8.304687-4.59375-9.722656-3.949218-1.414063-8.304687.640625-9.722656 4.597656-13.820312 38.59375-21.125 82.261719-21.125 126.28125 0 4.199219 3.402344 7.605469 7.605469 7.605469h19.832031.015625.019531 310.074219.019531.015625 19.832031c4.203126 0 7.605469-3.40625 7.605469-7.605469 0-60.050781-13.007812-116.851562-37.621093-164.257812-23.136719-44.570313-55.601563-77.691407-91.832032-93.867188zm0 0"/><path d="m203.921875 93.90625v-35.671875c0-11.804687-9.605469-21.410156-21.410156-21.410156-11.808594 0-21.414063 9.605469-21.414063 21.410156v35.671875c0 11.808594 9.605469 21.414062 21.414063 21.414062 11.804687 0 21.410156-9.605468 21.410156-21.414062zm-27.617187 0v-35.671875c0-3.421875 2.785156-6.203125 6.207031-6.203125 3.417969 0 6.203125 2.78125 6.203125 6.203125v35.671875c0 3.421875-2.785156 6.207031-6.203125 6.207031-3.421875 0-6.207031-2.785156-6.207031-6.207031zm0 0"/><path d="m504.394531 447.386719c4.203125 0 7.605469-3.40625 7.605469-7.605469v-432.175781c0-4.199219-3.402344-7.605469-7.605469-7.605469h-52.714843c-4.203126 0-7.605469 3.40625-7.605469 7.605469v14.972656h-105.949219c-4.199219 0-7.601562 3.402344-7.601562 7.601563 0 4.203124 3.402343 7.605468 7.601562 7.605468h105.949219v8.847656h-105.949219c-4.199219 0-7.601562 3.40625-7.601562 7.605469s3.402343 7.605469 7.601562 7.605469h105.949219v8.847656h-105.949219c-4.199219 0-7.601562 3.402344-7.601562 7.601563s3.402343 7.605469 7.601562 7.605469h105.949219v8.847656h-105.949219c-4.199219 0-7.601562 3.40625-7.601562 7.605468 0 4.199219 3.402343 7.601563 7.601562 7.601563h105.949219v8.851563h-105.949219c-4.199219 0-7.601562 3.402343-7.601562 7.601562s3.402343 7.605469 7.601562 7.605469h105.949219v8.847656h-105.949219c-4.199219 0-7.601562 3.40625-7.601562 7.605469 0 4.199218 3.402343 7.601562 7.601562 7.601562h105.949219v8.851563h-105.949219c-4.199219 0-7.601562 3.402343-7.601562 7.601562s3.402343 7.605469 7.601562 7.605469h105.949219v8.847656h-105.949219c-4.199219 0-7.601562 3.402344-7.601562 7.601563s3.402343 7.605469 7.601562 7.605469h105.949219v8.847656h-105.949219c-4.199219 0-7.601562 3.40625-7.601562 7.605468 0 4.199219 3.402343 7.605469 7.601562 7.605469h105.949219v8.847657h-105.949219c-4.199219 0-7.601562 3.402343-7.601562 7.601562s3.402343 7.605469 7.601562 7.605469h105.949219v8.847656h-105.949219c-4.199219 0-7.601562 3.40625-7.601562 7.605469 0 4.199218 3.402343 7.601562 7.601562 7.601562h105.949219v8.851563h-105.949219c-4.199219 0-7.601562 3.402343-7.601562 7.601562s3.402343 7.605469 7.601562 7.605469h105.949219v201.988281c0 4.199219 3.402343 7.605469 7.605469 7.605469h52.714843c4.203125 0 7.605469-3.40625 7.605469-7.605469v-39.265625c0-4.199218-3.402344-7.601562-7.605469-7.601562-4.199219 0-7.601562 3.402344-7.601562 7.601562v31.664063h-37.511719v-481.585938h37.511719v424.574219c0 4.199219 3.402343 7.605469 7.601562 7.605469zm0 0"/></svg>