<?xml version="1.0" encoding="iso-8859-1"?>
<!-- Generator: Adobe Illustrator 19.0.0, SVG Export Plug-In . SVG Version: 6.00 Build 0)  -->
<svg version="1.1" id="Layer_1" xmlns="http://www.w3.org/2000/svg" xmlns:xlink="http://www.w3.org/1999/xlink" x="0px" y="0px"
	 viewBox="0 0 512 512" style="enable-background:new 0 0 512 512;" xml:space="preserve">
<path style="fill:#FFE285;" d="M487.932,260.605c4.462,0.258,8.067,3.755,8.275,8.221c0.997,21.283-5.114,80.724-87.877,156.589
	c-76.986,70.57-163.059,71.333-208.917,25.475L65.596,317.071c-10.179-10.179-10.179-26.682,0-36.86L241.59,104.217
	c10.179-10.179,26.682-10.179,36.86,0C278.45,104.217,422.847,256.828,487.932,260.605z"/>
<path style="fill:#F7C14D;" d="M278.45,104.217c-10.179-10.179-26.682-10.179-36.86,0L65.596,280.211
	c-10.179,10.179-10.179,26.681,0,36.86l61.555,61.555l213.671-213.67C305.183,132.467,278.45,104.217,278.45,104.217z"/>
<g>
	<path style="fill:#F09B24;" d="M286.701,234.28c2.223,0,4.447-0.848,6.143-2.544c3.394-3.394,3.394-8.893,0-12.287l-31.494-31.494
		l-12.287,12.287l31.494,31.494C282.254,233.432,284.478,234.28,286.701,234.28z"/>
	<path style="fill:#F09B24;" d="M260.637,303.784c2.223,0,4.447-0.848,6.143-2.544c3.394-3.394,3.394-8.893,0-12.287l-53.213-53.213
		l-12.287,12.287l53.213,53.213C256.19,302.935,258.414,303.784,260.637,303.784z"/>
	<path style="fill:#F09B24;" d="M195.478,334.191c2.223,0,4.447-0.848,6.143-2.544c3.394-3.394,3.394-8.893,0-12.287l-35.838-35.838
		l-12.287,12.287l35.838,35.838C191.031,333.343,193.255,334.191,195.478,334.191z"/>
	<path style="fill:#F09B24;" d="M416.866,324.373c-17.931-7.835-28.219-17.813-28.47-18.059c-3.394-3.38-8.884-3.372-12.272,0.014
		c-3.394,3.394-3.394,8.893,0,12.287c1.591,1.591,33.482,32.757,86.318,32.757c2.802,0,5.667-0.092,8.585-0.277
		c3.875-6.468,7.168-12.664,9.973-18.566C458.691,335.955,437.167,333.242,416.866,324.373z"/>
	<path style="fill:#F09B24;" d="M354.187,359.033c-3.072-3.683-8.548-4.179-12.233-1.109c-3.686,3.071-4.184,8.55-1.112,12.236
		c1.58,1.897,33.408,39.627,71.406,51.622c5.17-4.85,10.024-9.628,14.587-14.333C390.441,401.948,354.57,359.492,354.187,359.033z"
		/>
	<path style="fill:#F09B24;" d="M280.557,410.584c-3.393,3.393-3.393,8.893,0,12.286c1.665,1.665,27.92,27.782,56.152,48.297
		c6.122-2.366,12.28-5.119,18.452-8.271c-24.196-16.299-50.934-40.933-62.319-52.314C289.451,407.191,283.95,407.19,280.557,410.584
		z"/>
</g>
<path style="fill:#69788D;" d="M195.531,174.301l-61.433,61.433L5.089,106.725c-6.785-6.785-6.785-17.787,0-24.573l36.86-36.86
	c6.785-6.785,17.787-6.785,24.573,0L195.531,174.301z"/>
<rect x="112.825" y="140.038" transform="matrix(-0.7071 -0.7071 0.7071 -0.7071 114.8589 414.5313)" style="fill:#56677E;" width="60.912" height="86.878"/>
<path style="fill:#69788D;" d="M278.45,104.217c-10.179-10.179-26.682-10.179-36.86,0L65.596,280.211
	c-10.179,10.179-10.179,26.681,0,36.86l42.007,42.007L320.58,146.099C295.528,122.266,278.45,104.217,278.45,104.217z"/>
<g>
	<path style="fill:#3CBDE8;" d="M222.492,45.645c-2.796-2.392-5.418-5.013-7.789-7.789c-7.527-8.811-12.791-19.358-15.646-31.348
		c-0.873-3.668-4.152-6.259-7.923-6.259c-3.772,0-7.05,2.59-7.923,6.259c-2.855,11.99-8.119,22.538-15.645,31.347
		c-2.372,2.777-4.993,5.397-7.79,7.79c-3.743,3.201-3.743,9.178,0,12.378c2.796,2.392,5.418,5.013,7.789,7.789
		c7.527,8.811,12.791,19.358,15.646,31.348c0.873,3.668,4.152,6.259,7.923,6.259c3.772,0,7.05-2.59,7.923-6.259
		c2.855-11.99,8.119-22.538,15.645-31.347c2.372-2.777,4.993-5.397,7.79-7.79C226.235,54.823,226.235,48.846,222.492,45.645z"/>
	<path style="fill:#3CBDE8;" d="M509.193,453.977c-2.796-2.392-5.418-5.013-7.789-7.789c-7.527-8.811-12.791-19.358-15.646-31.348
		c-0.873-3.668-4.152-6.259-7.923-6.259s-7.05,2.59-7.923,6.259c-2.855,11.99-8.119,22.538-15.645,31.347
		c-2.372,2.777-4.993,5.397-7.79,7.79c-3.743,3.202-3.743,9.178,0,12.378c2.796,2.392,5.418,5.013,7.789,7.789
		c7.527,8.811,12.791,19.358,15.646,31.348c0.873,3.668,4.152,6.259,7.923,6.259s7.05-2.59,7.923-6.259
		c2.855-11.99,8.119-22.538,15.645-31.347c2.372-2.777,4.993-5.397,7.79-7.79C512.936,463.155,512.936,457.177,509.193,453.977z"/>
	<path style="fill:#3CBDE8;" d="M144.301,453.977c-2.796-2.392-5.418-5.013-7.789-7.789c-7.527-8.811-12.791-19.358-15.646-31.348
		c-0.873-3.668-4.152-6.259-7.923-6.259s-7.05,2.59-7.923,6.259c-2.855,11.99-8.119,22.538-15.645,31.347
		c-2.372,2.777-4.993,5.397-7.79,7.79c-3.743,3.202-3.743,9.178,0,12.378c2.796,2.392,5.418,5.013,7.789,7.789
		c7.527,8.811,12.791,19.358,15.646,31.348c0.873,3.668,4.152,6.259,7.923,6.259s7.05-2.59,7.923-6.259
		c2.855-11.99,8.119-22.538,15.645-31.347c2.372-2.777,4.993-5.397,7.79-7.79C148.044,463.155,148.044,457.177,144.301,453.977z"/>
</g>
<g>
</g>
<g>
</g>
<g>
</g>
<g>
</g>
<g>
</g>
<g>
</g>
<g>
</g>
<g>
</g>
<g>
</g>
<g>
</g>
<g>
</g>
<g>
</g>
<g>
</g>
<g>
</g>
<g>
</g>
</svg>
